<svg xmlns="http://www.w3.org/2000/svg" width="30" height="34.286" viewBox="0 0 30 34.286">
  <path id="bag-shopping-solid" d="M7.5,7.5a7.5,7.5,0,0,1,15,0v3.214h4.286A3.215,3.215,0,0,1,30,13.929V27.857a6.43,6.43,0,0,1-6.429,6.429H6.429A6.429,6.429,0,0,1,0,27.857V13.929a3.215,3.215,0,0,1,3.214-3.214H7.5Zm3.214,3.214h8.571V7.5a4.286,4.286,0,1,0-8.571,0ZM9.107,17.143A1.607,1.607,0,1,0,7.5,15.536,1.6,1.6,0,0,0,9.107,17.143Zm11.786-3.214A1.607,1.607,0,1,0,22.5,15.536,1.6,1.6,0,0,0,20.893,13.929Z" fill="#fff"/>
</svg>
